<svg width="32" height="32" viewBox="0 0 32 32" fill="none" xmlns="http://www.w3.org/2000/svg">
<path d="M22.8441 16.8427V14.4427C22.845 12.8206 22.2987 11.2457 21.2936 9.97249C20.2885 8.69932 18.8834 7.80238 17.3054 7.42672C17.3173 7.38014 17.3266 7.33296 17.3334 7.28538V4.13338C17.3334 3.77976 17.1929 3.44062 16.9429 3.19057C16.6928 2.94052 16.3537 2.80005 16.0001 2.80005C15.6465 2.80005 15.3073 2.94052 15.0573 3.19057C14.8072 3.44062 14.6667 3.77976 14.6667 4.13338V7.28538C14.6735 7.33296 14.6829 7.38014 14.6947 7.42672C13.1168 7.80238 11.7116 8.69932 10.7065 9.97249C9.70145 11.2457 9.15519 12.8206 9.15608 14.4427V16.8427C9.15608 20.024 6.66675 20.8187 6.66675 22.4094C6.66675 23.2 6.66675 24 7.38408 24H24.6161C25.3334 24 25.3334 23.2 25.3334 22.4094C25.3334 20.8187 22.8441 20.024 22.8441 16.8427ZM11.7641 25.3334C12.1178 26.1641 12.7079 26.8725 13.4611 27.3704C14.2143 27.8683 15.0972 28.1337 16.0001 28.1337C16.903 28.1337 17.7859 27.8683 18.5391 27.3704C19.2922 26.8725 19.8824 26.1641 20.2361 25.3334H11.7641Z" fill="#0066FF"/>
<path d="M22.8441 16.8427V14.4427C22.845 12.8206 22.2987 11.2457 21.2936 9.97249C20.2885 8.69932 18.8834 7.80238 17.3054 7.42672C17.3173 7.38014 17.3266 7.33296 17.3334 7.28538V4.13338C17.3334 3.77976 17.1929 3.44062 16.9429 3.19057C16.6928 2.94052 16.3537 2.80005 16.0001 2.80005C15.6465 2.80005 15.3073 2.94052 15.0573 3.19057C14.8072 3.44062 14.6667 3.77976 14.6667 4.13338V7.28538C14.6735 7.33296 14.6829 7.38014 14.6947 7.42672C13.1168 7.80238 11.7116 8.69932 10.7065 9.97249C9.70145 11.2457 9.15519 12.8206 9.15608 14.4427V16.8427C9.15608 20.024 6.66675 20.8187 6.66675 22.4094C6.66675 23.2 6.66675 24 7.38408 24H24.6161C25.3334 24 25.3334 23.2 25.3334 22.4094C25.3334 20.8187 22.8441 20.024 22.8441 16.8427ZM11.7641 25.3334C12.1178 26.1641 12.7079 26.8725 13.4611 27.3704C14.2143 27.8683 15.0972 28.1337 16.0001 28.1337C16.903 28.1337 17.7859 27.8683 18.5391 27.3704C19.2922 26.8725 19.8824 26.1641 20.2361 25.3334H11.7641Z" fill="url(#paint0_linear_45_275)"/>
<defs>
<linearGradient id="paint0_linear_45_275" x1="8.92231" y1="5.98177" x2="23.6188" y2="27.0968" gradientUnits="userSpaceOnUse">
<stop stop-color="#0066FF"/>
<stop offset="0.526251" stop-color="#7BAAEF"/>
<stop offset="1" stop-color="#003D99"/>
</linearGradient>
</defs>
</svg>
