<svg width="378" height="169" viewBox="0 0 378 169" fill="none" xmlns="http://www.w3.org/2000/svg">
<rect width="378" height="169" rx="8" fill="url(#paint0_linear_168_618)"/>
<rect x="0.5" y="0.5" width="377" height="168" rx="7.5" stroke="url(#paint1_linear_168_618)" stroke-opacity="0.1"/>
<rect x="142" y="128" width="98" height="36" rx="18" fill="#0066FF"/>
<path d="M169.906 151.18C169.294 151.18 168.742 151.076 168.25 150.868C167.762 150.66 167.358 150.364 167.038 149.98C166.722 149.592 166.516 149.134 166.42 148.606L167.524 148.432C167.664 148.976 167.954 149.402 168.394 149.71C168.838 150.014 169.36 150.166 169.96 150.166C170.348 150.166 170.698 150.106 171.01 149.986C171.326 149.862 171.576 149.686 171.76 149.458C171.944 149.23 172.036 148.96 172.036 148.648C172.036 148.456 172.002 148.292 171.934 148.156C171.87 148.016 171.78 147.898 171.664 147.802C171.552 147.702 171.424 147.618 171.28 147.55C171.136 147.482 170.986 147.426 170.83 147.382L168.628 146.728C168.388 146.656 168.156 146.566 167.932 146.458C167.708 146.346 167.508 146.208 167.332 146.044C167.156 145.876 167.016 145.676 166.912 145.444C166.808 145.208 166.756 144.93 166.756 144.61C166.756 144.098 166.888 143.662 167.152 143.302C167.42 142.938 167.782 142.66 168.238 142.468C168.694 142.276 169.208 142.182 169.78 142.186C170.36 142.19 170.878 142.294 171.334 142.498C171.794 142.698 172.174 142.986 172.474 143.362C172.778 143.738 172.982 144.188 173.086 144.712L171.952 144.91C171.892 144.558 171.758 144.256 171.55 144.004C171.346 143.748 171.09 143.552 170.782 143.416C170.474 143.276 170.136 143.204 169.768 143.2C169.416 143.196 169.098 143.252 168.814 143.368C168.53 143.484 168.304 143.646 168.136 143.854C167.968 144.058 167.884 144.294 167.884 144.562C167.884 144.826 167.96 145.04 168.112 145.204C168.264 145.364 168.45 145.492 168.67 145.588C168.894 145.68 169.112 145.756 169.324 145.816L170.968 146.29C171.156 146.342 171.372 146.414 171.616 146.506C171.864 146.598 172.104 146.728 172.336 146.896C172.568 147.06 172.76 147.28 172.912 147.556C173.064 147.828 173.14 148.172 173.14 148.588C173.14 149.004 173.056 149.374 172.888 149.698C172.724 150.022 172.494 150.294 172.198 150.514C171.902 150.73 171.558 150.894 171.166 151.006C170.774 151.122 170.354 151.18 169.906 151.18ZM176.649 151.18C175.993 151.18 175.435 151.034 174.975 150.742C174.519 150.446 174.171 150.04 173.931 149.524C173.691 149.008 173.567 148.42 173.559 147.76C173.567 147.084 173.693 146.49 173.937 145.978C174.185 145.462 174.539 145.06 174.999 144.772C175.459 144.484 176.013 144.34 176.661 144.34C177.345 144.34 177.933 144.508 178.425 144.844C178.921 145.18 179.253 145.64 179.421 146.224L178.365 146.542C178.229 146.166 178.007 145.874 177.699 145.666C177.395 145.458 177.045 145.354 176.649 145.354C176.205 145.354 175.839 145.458 175.551 145.666C175.263 145.87 175.049 146.154 174.909 146.518C174.769 146.878 174.697 147.292 174.693 147.76C174.701 148.48 174.867 149.062 175.191 149.506C175.519 149.946 176.005 150.166 176.649 150.166C177.073 150.166 177.425 150.07 177.705 149.878C177.985 149.682 178.197 149.4 178.341 149.032L179.421 149.314C179.197 149.918 178.847 150.38 178.371 150.7C177.895 151.02 177.321 151.18 176.649 151.18ZM184.779 151V147.754C184.779 147.446 184.751 147.15 184.695 146.866C184.643 146.582 184.549 146.328 184.413 146.104C184.281 145.876 184.101 145.696 183.873 145.564C183.649 145.432 183.365 145.366 183.021 145.366C182.753 145.366 182.509 145.412 182.289 145.504C182.073 145.592 181.887 145.728 181.731 145.912C181.575 146.096 181.453 146.328 181.365 146.608C181.281 146.884 181.239 147.21 181.239 147.586L180.537 147.37C180.537 146.742 180.649 146.204 180.873 145.756C181.101 145.304 181.419 144.958 181.827 144.718C182.239 144.474 182.723 144.352 183.279 144.352C183.699 144.352 184.057 144.418 184.353 144.55C184.649 144.682 184.895 144.858 185.091 145.078C185.287 145.294 185.441 145.538 185.553 145.81C185.665 146.078 185.743 146.352 185.787 146.632C185.835 146.908 185.859 147.17 185.859 147.418V151H184.779ZM180.159 151V142.36H181.119V147.13H181.239V151H180.159ZM189.747 151.18C189.111 151.18 188.555 151.04 188.079 150.76C187.607 150.476 187.239 150.082 186.975 149.578C186.711 149.07 186.579 148.478 186.579 147.802C186.579 147.094 186.709 146.482 186.969 145.966C187.229 145.446 187.591 145.046 188.055 144.766C188.523 144.482 189.071 144.34 189.699 144.34C190.351 144.34 190.905 144.49 191.361 144.79C191.821 145.09 192.165 145.518 192.393 146.074C192.625 146.63 192.725 147.292 192.693 148.06H191.613V147.676C191.601 146.88 191.439 146.286 191.127 145.894C190.815 145.498 190.351 145.3 189.735 145.3C189.075 145.3 188.573 145.512 188.229 145.936C187.885 146.36 187.713 146.968 187.713 147.76C187.713 148.524 187.885 149.116 188.229 149.536C188.573 149.956 189.063 150.166 189.699 150.166C190.127 150.166 190.499 150.068 190.815 149.872C191.131 149.676 191.379 149.394 191.559 149.026L192.585 149.38C192.333 149.952 191.953 150.396 191.445 150.712C190.941 151.024 190.375 151.18 189.747 151.18ZM187.353 148.06V147.202H192.141V148.06H187.353ZM196.093 151.18C195.489 151.18 194.971 151.03 194.539 150.73C194.107 150.426 193.773 150.016 193.537 149.5C193.305 148.984 193.189 148.402 193.189 147.754C193.189 147.106 193.305 146.524 193.537 146.008C193.773 145.492 194.107 145.086 194.539 144.79C194.971 144.49 195.487 144.34 196.087 144.34C196.699 144.34 197.213 144.488 197.629 144.784C198.045 145.08 198.359 145.486 198.571 146.002C198.787 146.518 198.895 147.102 198.895 147.754C198.895 148.398 198.787 148.98 198.571 149.5C198.359 150.016 198.045 150.426 197.629 150.73C197.213 151.03 196.701 151.18 196.093 151.18ZM196.225 150.202C196.661 150.202 197.019 150.098 197.299 149.89C197.579 149.678 197.785 149.388 197.917 149.02C198.053 148.648 198.121 148.226 198.121 147.754C198.121 147.274 198.053 146.852 197.917 146.488C197.785 146.12 197.581 145.834 197.305 145.63C197.029 145.422 196.679 145.318 196.255 145.318C195.815 145.318 195.451 145.426 195.163 145.642C194.879 145.858 194.667 146.15 194.527 146.518C194.391 146.886 194.323 147.298 194.323 147.754C194.323 148.214 194.393 148.63 194.533 149.002C194.673 149.37 194.883 149.662 195.163 149.878C195.447 150.094 195.801 150.202 196.225 150.202ZM198.121 151V146.23H198.001V142.36H199.075V151H198.121ZM202.736 151.168C202.32 151.168 201.962 151.102 201.662 150.97C201.366 150.838 201.12 150.662 200.924 150.442C200.728 150.222 200.574 149.978 200.462 149.71C200.35 149.442 200.27 149.168 200.222 148.888C200.178 148.608 200.156 148.346 200.156 148.102V144.52H201.236V147.766C201.236 148.07 201.264 148.364 201.32 148.648C201.376 148.932 201.47 149.188 201.602 149.416C201.738 149.644 201.918 149.824 202.142 149.956C202.37 150.088 202.654 150.154 202.994 150.154C203.262 150.154 203.506 150.108 203.726 150.016C203.946 149.924 204.134 149.788 204.29 149.608C204.446 149.424 204.566 149.192 204.65 148.912C204.734 148.632 204.776 148.306 204.776 147.934L205.478 148.15C205.478 148.774 205.364 149.312 205.136 149.764C204.912 150.216 204.594 150.564 204.182 150.808C203.774 151.048 203.292 151.168 202.736 151.168ZM204.896 151V149.266H204.776V144.52H205.85V151H204.896ZM207.17 151V142.18H208.238V151H207.17ZM212.366 151.18C211.73 151.18 211.174 151.04 210.698 150.76C210.226 150.476 209.858 150.082 209.594 149.578C209.33 149.07 209.198 148.478 209.198 147.802C209.198 147.094 209.328 146.482 209.588 145.966C209.848 145.446 210.21 145.046 210.674 144.766C211.142 144.482 211.69 144.34 212.318 144.34C212.97 144.34 213.524 144.49 213.98 144.79C214.44 145.09 214.784 145.518 215.012 146.074C215.244 146.63 215.344 147.292 215.312 148.06H214.232V147.676C214.22 146.88 214.058 146.286 213.746 145.894C213.434 145.498 212.97 145.3 212.354 145.3C211.694 145.3 211.192 145.512 210.848 145.936C210.504 146.36 210.332 146.968 210.332 147.76C210.332 148.524 210.504 149.116 210.848 149.536C211.192 149.956 211.682 150.166 212.318 150.166C212.746 150.166 213.118 150.068 213.434 149.872C213.75 149.676 213.998 149.394 214.178 149.026L215.204 149.38C214.952 149.952 214.572 150.396 214.064 150.712C213.56 151.024 212.994 151.18 212.366 151.18ZM209.972 148.06V147.202H214.76V148.06H209.972Z" fill="white"/>
<rect x="19" y="25" width="37" height="37" rx="4" fill="#18CCFC"/>
<rect x="19.5" y="25.5" width="36" height="36" rx="3.5" stroke="black" stroke-opacity="0.05"/>
<path d="M47 41.15V47M38 47L44 43.1V49.5C44 51.433 41.314 53 38 53C34.686 53 32 51.433 32 49.5V43.1L38 47ZM38 47L28 40.5L38 34L48 40.5L38 47Z" stroke="white" stroke-width="1.5" stroke-linecap="square"/>
<path d="M67.066 38V30.374H64.12V29.36H71.08V30.374H68.134V38H67.066ZM73.4024 38.18C72.7664 38.18 72.2104 38.04 71.7344 37.76C71.2624 37.476 70.8944 37.082 70.6304 36.578C70.3664 36.07 70.2344 35.478 70.2344 34.802C70.2344 34.094 70.3644 33.482 70.6244 32.966C70.8844 32.446 71.2464 32.046 71.7104 31.766C72.1784 31.482 72.7264 31.34 73.3544 31.34C74.0064 31.34 74.5604 31.49 75.0164 31.79C75.4764 32.09 75.8204 32.518 76.0484 33.074C76.2804 33.63 76.3804 34.292 76.3484 35.06H75.2684V34.676C75.2564 33.88 75.0944 33.286 74.7824 32.894C74.4704 32.498 74.0064 32.3 73.3904 32.3C72.7304 32.3 72.2284 32.512 71.8844 32.936C71.5404 33.36 71.3684 33.968 71.3684 34.76C71.3684 35.524 71.5404 36.116 71.8844 36.536C72.2284 36.956 72.7184 37.166 73.3544 37.166C73.7824 37.166 74.1544 37.068 74.4704 36.872C74.7864 36.676 75.0344 36.394 75.2144 36.026L76.2404 36.38C75.9884 36.952 75.6084 37.396 75.1004 37.712C74.5964 38.024 74.0304 38.18 73.4024 38.18ZM71.0084 35.06V34.202H75.7964V35.06H71.0084ZM79.6522 38.174C78.8802 38.174 78.2462 38.006 77.7502 37.67C77.2582 37.33 76.9562 36.856 76.8442 36.248L77.9362 36.074C78.0242 36.426 78.2262 36.706 78.5422 36.914C78.8582 37.118 79.2502 37.22 79.7182 37.22C80.1622 37.22 80.5102 37.128 80.7622 36.944C81.0142 36.76 81.1402 36.51 81.1402 36.194C81.1402 36.01 81.0982 35.862 81.0142 35.75C80.9302 35.634 80.7562 35.526 80.4922 35.426C80.2322 35.326 79.8382 35.206 79.3102 35.066C78.7382 34.914 78.2882 34.756 77.9602 34.592C77.6322 34.428 77.3982 34.238 77.2582 34.022C77.1182 33.806 77.0482 33.544 77.0482 33.236C77.0482 32.856 77.1522 32.524 77.3602 32.24C77.5682 31.952 77.8582 31.73 78.2302 31.574C78.6062 31.418 79.0422 31.34 79.5382 31.34C80.0302 31.34 80.4702 31.418 80.8582 31.574C81.2462 31.73 81.5582 31.952 81.7942 32.24C82.0342 32.524 82.1762 32.856 82.2202 33.236L81.1282 33.434C81.0762 33.086 80.9082 32.812 80.6242 32.612C80.3442 32.412 79.9822 32.306 79.5382 32.294C79.1182 32.278 78.7762 32.352 78.5122 32.516C78.2522 32.68 78.1222 32.902 78.1222 33.182C78.1222 33.338 78.1702 33.472 78.2662 33.584C78.3662 33.696 78.5482 33.802 78.8122 33.902C79.0802 34.002 79.4682 34.116 79.9762 34.244C80.5482 34.388 80.9982 34.546 81.3262 34.718C81.6582 34.886 81.8942 35.086 82.0342 35.318C82.1742 35.546 82.2442 35.828 82.2442 36.164C82.2442 36.788 82.0142 37.28 81.5542 37.64C81.0942 37.996 80.4602 38.174 79.6522 38.174ZM86.7055 38C86.3215 38.076 85.9415 38.106 85.5655 38.09C85.1935 38.078 84.8615 38.004 84.5695 37.868C84.2775 37.728 84.0555 37.512 83.9035 37.22C83.7755 36.964 83.7055 36.706 83.6935 36.446C83.6855 36.182 83.6815 35.884 83.6815 35.552V29.72H84.7495V35.504C84.7495 35.768 84.7515 35.994 84.7555 36.182C84.7635 36.37 84.8055 36.532 84.8815 36.668C85.0255 36.924 85.2535 37.074 85.5655 37.118C85.8815 37.162 86.2615 37.15 86.7055 37.082V38ZM82.3675 32.402V31.52H86.7055V32.402H82.3675ZM91.6894 38V30.374H88.7434V29.36H95.7034V30.374H92.7574V38H91.6894ZM96.2988 30.374V29.27H97.3668V30.374H96.2988ZM96.2988 38V31.52H97.3668V38H96.2988ZM102.305 38C101.921 38.076 101.541 38.106 101.165 38.09C100.793 38.078 100.461 38.004 100.169 37.868C99.877 37.728 99.655 37.512 99.503 37.22C99.375 36.964 99.305 36.706 99.293 36.446C99.285 36.182 99.281 35.884 99.281 35.552V29.72H100.349V35.504C100.349 35.768 100.351 35.994 100.355 36.182C100.363 36.37 100.405 36.532 100.481 36.668C100.625 36.924 100.853 37.074 101.165 37.118C101.481 37.162 101.861 37.15 102.305 37.082V38ZM97.967 32.402V31.52H102.305V32.402H97.967ZM103.261 38V29.18H104.329V38H103.261ZM108.457 38.18C107.821 38.18 107.265 38.04 106.789 37.76C106.317 37.476 105.949 37.082 105.685 36.578C105.421 36.07 105.289 35.478 105.289 34.802C105.289 34.094 105.419 33.482 105.679 32.966C105.939 32.446 106.301 32.046 106.765 31.766C107.233 31.482 107.781 31.34 108.409 31.34C109.061 31.34 109.615 31.49 110.071 31.79C110.531 32.09 110.875 32.518 111.103 33.074C111.335 33.63 111.435 34.292 111.403 35.06H110.323V34.676C110.311 33.88 110.149 33.286 109.837 32.894C109.525 32.498 109.061 32.3 108.445 32.3C107.785 32.3 107.283 32.512 106.939 32.936C106.595 33.36 106.423 33.968 106.423 34.76C106.423 35.524 106.595 36.116 106.939 36.536C107.283 36.956 107.773 37.166 108.409 37.166C108.837 37.166 109.209 37.068 109.525 36.872C109.841 36.676 110.089 36.394 110.269 36.026L111.295 36.38C111.043 36.952 110.663 37.396 110.155 37.712C109.651 38.024 109.085 38.18 108.457 38.18ZM106.063 35.06V34.202H110.851V35.06H106.063Z" fill="black" fill-opacity="0.6"/>
<path d="M69.856 58.24C68.7093 58.24 67.736 57.9867 66.936 57.48C66.136 56.9733 65.5253 56.2693 65.104 55.368C64.688 54.4667 64.48 53.424 64.48 52.24C64.48 51.056 64.688 50.0133 65.104 49.112C65.5253 48.2107 66.136 47.5067 66.936 47C67.736 46.4933 68.7093 46.24 69.856 46.24C71.1893 46.24 72.2853 46.5787 73.144 47.256C74.008 47.9333 74.6027 48.8453 74.928 49.992L73.48 50.376C73.2453 49.5173 72.8267 48.84 72.224 48.344C71.6213 47.848 70.832 47.6 69.856 47.6C68.9973 47.6 68.2827 47.7947 67.712 48.184C67.1413 48.5733 66.712 49.1173 66.424 49.816C66.136 50.5093 65.9893 51.3173 65.984 52.24C65.9787 53.1573 66.12 53.9653 66.408 54.664C66.696 55.3573 67.128 55.9013 67.704 56.296C68.28 56.6853 68.9973 56.88 69.856 56.88C70.832 56.88 71.6213 56.632 72.224 56.136C72.8267 55.6347 73.2453 54.9573 73.48 54.104L74.928 54.488C74.6027 55.6293 74.008 56.5413 73.144 57.224C72.2853 57.9013 71.1893 58.24 69.856 58.24ZM82.1945 58V53.672C82.1945 53.2613 82.1572 52.8667 82.0825 52.488C82.0132 52.1093 81.8878 51.7707 81.7065 51.472C81.5305 51.168 81.2905 50.928 80.9865 50.752C80.6878 50.576 80.3092 50.488 79.8505 50.488C79.4932 50.488 79.1678 50.5493 78.8745 50.672C78.5865 50.7893 78.3385 50.9707 78.1305 51.216C77.9225 51.4613 77.7598 51.7707 77.6425 52.144C77.5305 52.512 77.4745 52.9467 77.4745 53.448L76.5385 53.16C76.5385 52.3227 76.6878 51.6053 76.9865 51.008C77.2905 50.4053 77.7145 49.944 78.2585 49.624C78.8078 49.2987 79.4532 49.136 80.1945 49.136C80.7545 49.136 81.2318 49.224 81.6265 49.4C82.0212 49.576 82.3492 49.8107 82.6105 50.104C82.8718 50.392 83.0772 50.7173 83.2265 51.08C83.3758 51.4373 83.4798 51.8027 83.5385 52.176C83.6025 52.544 83.6345 52.8933 83.6345 53.224V58H82.1945ZM76.0345 58V46.48H77.3145V52.84H77.4745V58H76.0345ZM88.8184 58.24C87.9704 58.24 87.229 58.0533 86.5944 57.68C85.965 57.3013 85.4744 56.776 85.1224 56.104C84.7704 55.4267 84.5944 54.6373 84.5944 53.736C84.5944 52.792 84.7677 51.976 85.1144 51.288C85.461 50.5947 85.9437 50.0613 86.5624 49.688C87.1864 49.3093 87.917 49.12 88.7544 49.12C89.6237 49.12 90.3624 49.32 90.9704 49.72C91.5837 50.12 92.0424 50.6907 92.3464 51.432C92.6557 52.1733 92.789 53.056 92.7464 54.08H91.3064V53.568C91.2904 52.5067 91.0744 51.7147 90.6584 51.192C90.2424 50.664 89.6237 50.4 88.8024 50.4C87.9224 50.4 87.253 50.6827 86.7944 51.248C86.3357 51.8133 86.1064 52.624 86.1064 53.68C86.1064 54.6987 86.3357 55.488 86.7944 56.048C87.253 56.608 87.9064 56.888 88.7544 56.888C89.325 56.888 89.821 56.7573 90.2424 56.496C90.6637 56.2347 90.9944 55.8587 91.2344 55.368L92.6024 55.84C92.2664 56.6027 91.7597 57.1947 91.0824 57.616C90.4104 58.032 89.6557 58.24 88.8184 58.24ZM85.6264 54.08V52.936H92.0104V54.08H85.6264ZM103.981 58L103.989 52.472C103.989 51.8267 103.816 51.3227 103.469 50.96C103.128 50.592 102.682 50.408 102.133 50.408C101.813 50.408 101.509 50.4827 101.221 50.632C100.933 50.776 100.698 51.0053 100.517 51.32C100.336 51.6293 100.245 52.0267 100.245 52.512L99.4931 52.208C99.4825 51.5947 99.6078 51.0587 99.8691 50.6C100.136 50.136 100.498 49.776 100.957 49.52C101.416 49.264 101.933 49.136 102.509 49.136C103.41 49.136 104.12 49.4107 104.637 49.96C105.154 50.504 105.413 51.2373 105.413 52.16L105.405 58H103.981ZM93.6451 58V49.36H94.9171V51.672H95.0771V58H93.6451ZM98.8211 58L98.8291 52.528C98.8291 51.8667 98.6585 51.3493 98.3171 50.976C97.9758 50.5973 97.5225 50.408 96.9571 50.408C96.3971 50.408 95.9438 50.6 95.5971 50.984C95.2505 51.368 95.0771 51.8773 95.0771 52.512L94.3251 52.064C94.3251 51.504 94.4585 51.0027 94.7251 50.56C94.9918 50.1173 95.3545 49.7707 95.8131 49.52C96.2718 49.264 96.7918 49.136 97.3731 49.136C97.9545 49.136 98.4611 49.2587 98.8931 49.504C99.3251 49.7493 99.6585 50.1013 99.8931 50.56C100.128 51.0133 100.245 51.5547 100.245 52.184L100.237 58H98.8211ZM107.017 47.832V46.36H108.441V47.832H107.017ZM107.017 58V49.36H108.441V58H107.017ZM113.465 58.232C112.436 58.232 111.591 58.008 110.929 57.56C110.273 57.1067 109.871 56.4747 109.721 55.664L111.177 55.432C111.295 55.9013 111.564 56.2747 111.985 56.552C112.407 56.824 112.929 56.96 113.553 56.96C114.145 56.96 114.609 56.8373 114.945 56.592C115.281 56.3467 115.449 56.0133 115.449 55.592C115.449 55.3467 115.393 55.1493 115.281 55C115.169 54.8453 114.937 54.7013 114.585 54.568C114.239 54.4347 113.713 54.2747 113.009 54.088C112.247 53.8853 111.647 53.6747 111.209 53.456C110.772 53.2373 110.46 52.984 110.273 52.696C110.087 52.408 109.993 52.0587 109.993 51.648C109.993 51.1413 110.132 50.6987 110.409 50.32C110.687 49.936 111.073 49.64 111.569 49.432C112.071 49.224 112.652 49.12 113.313 49.12C113.969 49.12 114.556 49.224 115.073 49.432C115.591 49.64 116.007 49.936 116.321 50.32C116.641 50.6987 116.831 51.1413 116.889 51.648L115.433 51.912C115.364 51.448 115.14 51.0827 114.761 50.816C114.388 50.5493 113.905 50.408 113.313 50.392C112.753 50.3707 112.297 50.4693 111.945 50.688C111.599 50.9067 111.425 51.2027 111.425 51.576C111.425 51.784 111.489 51.9627 111.617 52.112C111.751 52.2613 111.993 52.4027 112.345 52.536C112.703 52.6693 113.22 52.8213 113.897 52.992C114.66 53.184 115.26 53.3947 115.697 53.624C116.14 53.848 116.455 54.1147 116.641 54.424C116.828 54.728 116.921 55.104 116.921 55.552C116.921 56.384 116.615 57.04 116.001 57.52C115.388 57.9947 114.543 58.232 113.465 58.232ZM122.87 58C122.358 58.1013 121.851 58.1413 121.35 58.12C120.854 58.104 120.411 58.0053 120.022 57.824C119.632 57.6373 119.336 57.3493 119.134 56.96C118.963 56.6187 118.87 56.2747 118.854 55.928C118.843 55.576 118.838 55.1787 118.838 54.736V46.96H120.262V54.672C120.262 55.024 120.264 55.3253 120.27 55.576C120.28 55.8267 120.336 56.0427 120.438 56.224C120.63 56.5653 120.934 56.7653 121.35 56.824C121.771 56.8827 122.278 56.8667 122.87 56.776V58ZM117.086 50.536V49.36H122.87V50.536H117.086ZM123.984 58V49.36H125.256V51.448L125.048 51.176C125.149 50.9093 125.28 50.664 125.44 50.44C125.605 50.216 125.789 50.032 125.992 49.888C126.216 49.7067 126.469 49.568 126.752 49.472C127.034 49.376 127.322 49.32 127.616 49.304C127.909 49.2827 128.184 49.3013 128.44 49.36V50.696C128.141 50.616 127.813 50.5947 127.456 50.632C127.098 50.6693 126.768 50.8 126.464 51.024C126.186 51.2213 125.97 51.4613 125.816 51.744C125.666 52.0267 125.562 52.3333 125.504 52.664C125.445 52.9893 125.416 53.3227 125.416 53.664V58H123.984ZM130.356 61.84L132.028 57.296L132.052 58.64L128.276 49.36H129.772L132.732 56.824H132.22L134.996 49.36H136.444L131.74 61.84H130.356ZM143.369 58.24C142.51 58.24 141.769 58.0453 141.145 57.656C140.526 57.2667 140.049 56.728 139.713 56.04C139.377 55.352 139.209 54.5627 139.209 53.672C139.209 52.7653 139.379 51.9707 139.721 51.288C140.062 50.6053 140.545 50.0747 141.169 49.696C141.793 49.312 142.526 49.12 143.369 49.12C144.233 49.12 144.977 49.3147 145.601 49.704C146.225 50.088 146.702 50.624 147.033 51.312C147.369 51.9947 147.537 52.7813 147.537 53.672C147.537 54.5733 147.369 55.368 147.033 56.056C146.697 56.7387 146.217 57.2747 145.593 57.664C144.969 58.048 144.227 58.24 143.369 58.24ZM143.369 56.888C144.265 56.888 144.931 56.5893 145.369 55.992C145.806 55.3947 146.025 54.6213 146.025 53.672C146.025 52.696 145.803 51.92 145.361 51.344C144.918 50.7627 144.254 50.472 143.369 50.472C142.766 50.472 142.27 50.608 141.881 50.88C141.491 51.152 141.201 51.528 141.009 52.008C140.817 52.488 140.721 53.0427 140.721 53.672C140.721 54.6427 140.945 55.4213 141.393 56.008C141.841 56.5947 142.499 56.888 143.369 56.888ZM148.658 58V49.36H149.93V51.448L149.722 51.176C149.823 50.9093 149.954 50.664 150.114 50.44C150.279 50.216 150.463 50.032 150.666 49.888C150.89 49.7067 151.143 49.568 151.426 49.472C151.709 49.376 151.997 49.32 152.29 49.304C152.583 49.2827 152.858 49.3013 153.114 49.36V50.696C152.815 50.616 152.487 50.5947 152.13 50.632C151.773 50.6693 151.442 50.8 151.138 51.024C150.861 51.2213 150.645 51.4613 150.49 51.744C150.341 52.0267 150.237 52.3333 150.178 52.664C150.119 52.9893 150.09 53.3227 150.09 53.664V58H148.658ZM157.17 62.08C156.717 62.08 156.274 62.0107 155.842 61.872C155.41 61.7333 155.013 61.5227 154.65 61.24C154.293 60.9627 153.994 60.6107 153.754 60.184L155.058 59.496C155.272 59.9173 155.573 60.224 155.962 60.416C156.357 60.608 156.762 60.704 157.178 60.704C157.728 60.704 158.184 60.6027 158.546 60.4C158.909 60.2027 159.176 59.9067 159.346 59.512C159.522 59.1173 159.608 58.6267 159.602 58.04V55.68H159.77V49.36H161.034V58.056C161.034 58.2907 161.026 58.5173 161.01 58.736C161 58.9547 160.973 59.1707 160.93 59.384C160.818 59.9973 160.597 60.5013 160.266 60.896C159.936 61.296 159.509 61.592 158.986 61.784C158.464 61.9813 157.858 62.08 157.17 62.08ZM157.066 58.24C156.261 58.24 155.57 58.04 154.994 57.64C154.418 57.2347 153.973 56.688 153.658 56C153.349 55.312 153.194 54.536 153.194 53.672C153.194 52.808 153.349 52.032 153.658 51.344C153.973 50.656 154.418 50.1147 154.994 49.72C155.57 49.32 156.258 49.12 157.058 49.12C157.874 49.12 158.56 49.3173 159.114 49.712C159.669 50.1067 160.088 50.648 160.37 51.336C160.658 52.024 160.802 52.8027 160.802 53.672C160.802 54.5307 160.658 55.3067 160.37 56C160.088 56.688 159.669 57.2347 159.114 57.64C158.56 58.04 157.877 58.24 157.066 58.24ZM157.242 56.936C157.824 56.936 158.301 56.7973 158.674 56.52C159.048 56.2373 159.322 55.8507 159.498 55.36C159.68 54.864 159.77 54.3013 159.77 53.672C159.77 53.032 159.68 52.4693 159.498 51.984C159.322 51.4933 159.05 51.112 158.682 50.84C158.314 50.5627 157.848 50.424 157.282 50.424C156.696 50.424 156.21 50.568 155.826 50.856C155.448 51.144 155.165 51.5333 154.978 52.024C154.797 52.5147 154.706 53.064 154.706 53.672C154.706 54.2853 154.8 54.84 154.986 55.336C155.173 55.8267 155.453 56.216 155.826 56.504C156.205 56.792 156.677 56.936 157.242 56.936ZM165.084 58.24C164.439 58.24 163.897 58.1227 163.46 57.888C163.028 57.648 162.7 57.3333 162.476 56.944C162.257 56.5547 162.148 56.128 162.148 55.664C162.148 55.2107 162.233 54.8187 162.404 54.488C162.58 54.152 162.825 53.8747 163.14 53.656C163.455 53.432 163.831 53.256 164.268 53.128C164.679 53.016 165.137 52.92 165.644 52.84C166.156 52.7547 166.673 52.6773 167.196 52.608C167.719 52.5387 168.207 52.472 168.66 52.408L168.148 52.704C168.164 51.936 168.009 51.368 167.684 51C167.364 50.632 166.809 50.448 166.02 50.448C165.497 50.448 165.039 50.568 164.644 50.808C164.255 51.0427 163.98 51.4267 163.82 51.96L162.468 51.552C162.676 50.7947 163.079 50.2 163.676 49.768C164.273 49.336 165.06 49.12 166.036 49.12C166.82 49.12 167.492 49.2613 168.052 49.544C168.617 49.8213 169.023 50.2427 169.268 50.808C169.391 51.0747 169.468 51.3653 169.5 51.68C169.532 51.9893 169.548 52.3147 169.548 52.656V58H168.284V55.928L168.58 56.12C168.255 56.8187 167.799 57.3467 167.212 57.704C166.631 58.0613 165.921 58.24 165.084 58.24ZM165.3 57.048C165.812 57.048 166.255 56.9573 166.628 56.776C167.007 56.5893 167.311 56.3467 167.54 56.048C167.769 55.744 167.919 55.4133 167.988 55.056C168.068 54.7893 168.111 54.4933 168.116 54.168C168.127 53.8373 168.132 53.584 168.132 53.408L168.628 53.624C168.164 53.688 167.708 53.7493 167.26 53.808C166.812 53.8667 166.388 53.9307 165.988 54C165.588 54.064 165.228 54.1413 164.908 54.232C164.673 54.3067 164.452 54.4027 164.244 54.52C164.041 54.6373 163.876 54.7893 163.748 54.976C163.625 55.1573 163.564 55.384 163.564 55.656C163.564 55.8907 163.623 56.1147 163.74 56.328C163.863 56.5413 164.049 56.7147 164.3 56.848C164.556 56.9813 164.889 57.048 165.3 57.048ZM177.14 58V53.672C177.14 53.2613 177.103 52.8667 177.028 52.488C176.959 52.1093 176.833 51.7707 176.652 51.472C176.476 51.168 176.236 50.928 175.932 50.752C175.633 50.576 175.255 50.488 174.796 50.488C174.439 50.488 174.113 50.5493 173.82 50.672C173.532 50.7893 173.284 50.9707 173.076 51.216C172.868 51.4613 172.705 51.7707 172.588 52.144C172.476 52.512 172.42 52.9467 172.42 53.448L171.484 53.16C171.484 52.3227 171.633 51.6053 171.932 51.008C172.236 50.4053 172.66 49.944 173.204 49.624C173.753 49.2987 174.399 49.136 175.14 49.136C175.7 49.136 176.177 49.224 176.572 49.4C176.967 49.576 177.295 49.8107 177.556 50.104C177.817 50.392 178.023 50.7173 178.172 51.08C178.321 51.4373 178.425 51.8027 178.484 52.176C178.548 52.544 178.58 52.8933 178.58 53.224V58H177.14ZM170.98 58V49.36H172.26V51.672H172.42V58H170.98ZM180.18 47.832V46.36H181.604V47.832H180.18ZM180.18 58V49.36H181.604V58H180.18ZM187.004 58.24C186.13 58.24 185.386 58.0453 184.772 57.656C184.164 57.2613 183.7 56.72 183.38 56.032C183.06 55.344 182.895 54.56 182.884 53.68C182.895 52.7787 183.063 51.9867 183.388 51.304C183.719 50.616 184.191 50.08 184.804 49.696C185.418 49.312 186.156 49.12 187.02 49.12C187.932 49.12 188.716 49.344 189.372 49.792C190.034 50.24 190.476 50.8533 190.7 51.632L189.292 52.056C189.111 51.5547 188.815 51.1653 188.404 50.888C187.999 50.6107 187.532 50.472 187.004 50.472C186.412 50.472 185.924 50.6107 185.54 50.888C185.156 51.16 184.871 51.5387 184.684 52.024C184.498 52.504 184.402 53.056 184.396 53.68C184.407 54.64 184.628 55.416 185.06 56.008C185.498 56.5947 186.146 56.888 187.004 56.888C187.57 56.888 188.039 56.76 188.412 56.504C188.786 56.2427 189.068 55.8667 189.26 55.376L190.7 55.752C190.402 56.5573 189.935 57.1733 189.3 57.6C188.666 58.0267 187.9 58.24 187.004 58.24ZM199.08 58C198.568 58.1013 198.062 58.1413 197.56 58.12C197.064 58.104 196.622 58.0053 196.232 57.824C195.843 57.6373 195.547 57.3493 195.344 56.96C195.174 56.6187 195.08 56.2747 195.064 55.928C195.054 55.576 195.048 55.1787 195.048 54.736V46.96H196.472V54.672C196.472 55.024 196.475 55.3253 196.48 55.576C196.491 55.8267 196.547 56.0427 196.648 56.224C196.84 56.5653 197.144 56.7653 197.56 56.824C197.982 56.8827 198.488 56.8667 199.08 56.776V58ZM193.296 50.536V49.36H199.08V50.536H193.296ZM203.579 58.24C202.731 58.24 201.99 58.0533 201.355 57.68C200.726 57.3013 200.235 56.776 199.883 56.104C199.531 55.4267 199.355 54.6373 199.355 53.736C199.355 52.792 199.528 51.976 199.875 51.288C200.222 50.5947 200.704 50.0613 201.323 49.688C201.947 49.3093 202.678 49.12 203.515 49.12C204.384 49.12 205.123 49.32 205.731 49.72C206.344 50.12 206.803 50.6907 207.107 51.432C207.416 52.1733 207.55 53.056 207.507 54.08H206.067V53.568C206.051 52.5067 205.835 51.7147 205.419 51.192C205.003 50.664 204.384 50.4 203.563 50.4C202.683 50.4 202.014 50.6827 201.555 51.248C201.096 51.8133 200.867 52.624 200.867 53.68C200.867 54.6987 201.096 55.488 201.555 56.048C202.014 56.608 202.667 56.888 203.515 56.888C204.086 56.888 204.582 56.7573 205.003 56.496C205.424 56.2347 205.755 55.8587 205.995 55.368L207.363 55.84C207.027 56.6027 206.52 57.1947 205.843 57.616C205.171 58.032 204.416 58.24 203.579 58.24ZM200.387 54.08V52.936H206.771V54.08H200.387ZM211.912 58.232C210.883 58.232 210.037 58.008 209.376 57.56C208.72 57.1067 208.317 56.4747 208.168 55.664L209.624 55.432C209.741 55.9013 210.011 56.2747 210.432 56.552C210.853 56.824 211.376 56.96 212 56.96C212.592 56.96 213.056 56.8373 213.392 56.592C213.728 56.3467 213.896 56.0133 213.896 55.592C213.896 55.3467 213.84 55.1493 213.728 55C213.616 54.8453 213.384 54.7013 213.032 54.568C212.685 54.4347 212.16 54.2747 211.456 54.088C210.693 53.8853 210.093 53.6747 209.656 53.456C209.219 53.2373 208.907 52.984 208.72 52.696C208.533 52.408 208.44 52.0587 208.44 51.648C208.44 51.1413 208.579 50.6987 208.856 50.32C209.133 49.936 209.52 49.64 210.016 49.432C210.517 49.224 211.099 49.12 211.76 49.12C212.416 49.12 213.003 49.224 213.52 49.432C214.037 49.64 214.453 49.936 214.768 50.32C215.088 50.6987 215.277 51.1413 215.336 51.648L213.88 51.912C213.811 51.448 213.587 51.0827 213.208 50.816C212.835 50.5493 212.352 50.408 211.76 50.392C211.2 50.3707 210.744 50.4693 210.392 50.688C210.045 50.9067 209.872 51.2027 209.872 51.576C209.872 51.784 209.936 51.9627 210.064 52.112C210.197 52.2613 210.44 52.4027 210.792 52.536C211.149 52.6693 211.667 52.8213 212.344 52.992C213.107 53.184 213.707 53.3947 214.144 53.624C214.587 53.848 214.901 54.1147 215.088 54.424C215.275 54.728 215.368 55.104 215.368 55.552C215.368 56.384 215.061 57.04 214.448 57.52C213.835 57.9947 212.989 58.232 211.912 58.232ZM221.316 58C220.804 58.1013 220.298 58.1413 219.796 58.12C219.3 58.104 218.858 58.0053 218.468 57.824C218.079 57.6373 217.783 57.3493 217.58 56.96C217.41 56.6187 217.316 56.2747 217.3 55.928C217.29 55.576 217.284 55.1787 217.284 54.736V46.96H218.708V54.672C218.708 55.024 218.711 55.3253 218.716 55.576C218.727 55.8267 218.783 56.0427 218.884 56.224C219.076 56.5653 219.38 56.7653 219.796 56.824C220.218 56.8827 220.724 56.8667 221.316 56.776V58ZM215.532 50.536V49.36H221.316V50.536H215.532Z" fill="black"/>
<path d="M345.3 44.7L346.7 43.3L343 39.6V35H341V40.4L345.3 44.7ZM342 50C340.617 50 339.317 49.7373 338.1 49.212C336.883 48.6867 335.825 47.9743 334.925 47.075C334.025 46.1757 333.313 45.1173 332.788 43.9C332.263 42.6827 332.001 41.3827 332 40C331.999 38.6173 332.262 37.3173 332.788 36.1C333.314 34.8827 334.026 33.8243 334.925 32.925C335.824 32.0257 336.882 31.3133 338.1 30.788C339.318 30.2627 340.618 30 342 30C343.382 30 344.682 30.2627 345.9 30.788C347.118 31.3133 348.176 32.0257 349.075 32.925C349.974 33.8243 350.686 34.8827 351.213 36.1C351.74 37.3173 352.002 38.6173 352 40C351.998 41.3827 351.735 42.6827 351.212 43.9C350.689 45.1173 349.976 46.1757 349.075 47.075C348.174 47.9743 347.115 48.687 345.9 49.213C344.685 49.739 343.385 50.0013 342 50ZM342 48C344.217 48 346.104 47.221 347.663 45.663C349.222 44.105 350.001 42.2173 350 40C349.999 37.7827 349.22 35.895 347.663 34.337C346.106 32.779 344.218 32 342 32C339.782 32 337.894 32.7793 336.337 34.338C334.78 35.8967 334.001 37.784 334 40C333.999 42.216 334.779 44.1037 336.338 45.663C337.897 47.2223 339.785 48.0013 342 48Z" fill="#0066FF"/>
<path d="M66.555 86V79.645H64.1V78.8H69.9V79.645H67.445V86H66.555ZM70.3961 79.645V78.725H71.2861V79.645H70.3961ZM70.3961 86V80.6H71.2861V86H70.3961ZM78.8413 86L78.8463 82.545C78.8463 82.1417 78.738 81.8267 78.5213 81.6C78.308 81.37 78.0297 81.255 77.6863 81.255C77.4863 81.255 77.2963 81.3017 77.1163 81.395C76.9363 81.485 76.7897 81.6283 76.6763 81.825C76.563 82.0183 76.5063 82.2667 76.5063 82.57L76.0363 82.38C76.0297 81.9967 76.108 81.6617 76.2713 81.375C76.438 81.085 76.6647 80.86 76.9513 80.7C77.238 80.54 77.5613 80.46 77.9213 80.46C78.4847 80.46 78.928 80.6317 79.2513 80.975C79.5747 81.315 79.7363 81.7733 79.7363 82.35L79.7313 86H78.8413ZM72.3813 86V80.6H73.1763V82.045H73.2763V86H72.3813ZM75.6163 86L75.6213 82.58C75.6213 82.1667 75.5147 81.8433 75.3013 81.61C75.088 81.3733 74.8047 81.255 74.4513 81.255C74.1013 81.255 73.818 81.375 73.6013 81.615C73.3847 81.855 73.2763 82.1733 73.2763 82.57L72.8063 82.29C72.8063 81.94 72.8897 81.6267 73.0563 81.35C73.223 81.0733 73.4497 80.8567 73.7363 80.7C74.023 80.54 74.348 80.46 74.7113 80.46C75.0747 80.46 75.3913 80.5367 75.6613 80.69C75.9313 80.8433 76.1397 81.0633 76.2863 81.35C76.433 81.6333 76.5063 81.9717 76.5063 82.365L76.5013 86H75.6163ZM82.9298 86.15C82.3998 86.15 81.9365 86.0333 81.5398 85.8C81.1465 85.5633 80.8398 85.235 80.6198 84.815C80.3998 84.3917 80.2898 83.8983 80.2898 83.335C80.2898 82.745 80.3982 82.235 80.6148 81.805C80.8315 81.3717 81.1332 81.0383 81.5198 80.805C81.9098 80.5683 82.3665 80.45 82.8898 80.45C83.4332 80.45 83.8948 80.575 84.2748 80.825C84.6582 81.075 84.9448 81.4317 85.1348 81.895C85.3282 82.3583 85.4115 82.91 85.3848 83.55H84.4848V83.23C84.4748 82.5667 84.3398 82.0717 84.0798 81.745C83.8198 81.415 83.4332 81.25 82.9198 81.25C82.3698 81.25 81.9515 81.4267 81.6648 81.78C81.3782 82.1333 81.2348 82.64 81.2348 83.3C81.2348 83.9367 81.3782 84.43 81.6648 84.78C81.9515 85.13 82.3598 85.305 82.8898 85.305C83.2465 85.305 83.5565 85.2233 83.8198 85.06C84.0832 84.8967 84.2898 84.6617 84.4398 84.355L85.2948 84.65C85.0848 85.1267 84.7682 85.4967 84.3448 85.76C83.9248 86.02 83.4532 86.15 82.9298 86.15ZM80.9348 83.55V82.835H84.9248V83.55H80.9348ZM90.04 86.15C89.64 86.15 89.2667 86.0917 88.92 85.975C88.5733 85.8583 88.2833 85.675 88.05 85.425C87.87 85.225 87.735 85.005 87.645 84.765C87.5583 84.5217 87.51 84.265 87.5 83.995C87.5 83.7317 87.5383 83.475 87.615 83.225C87.6917 82.9717 87.8133 82.7467 87.98 82.55C88.0667 82.4433 88.1633 82.3533 88.27 82.28C88.38 82.2033 88.49 82.1383 88.6 82.085C88.37 81.8383 88.1933 81.6067 88.07 81.39C87.95 81.1733 87.89 80.9117 87.89 80.605C87.89 80.215 87.99 79.8633 88.19 79.55C88.3933 79.2333 88.67 79.0017 89.02 78.855C89.19 78.7817 89.3633 78.7317 89.54 78.705C89.72 78.675 89.895 78.66 90.065 78.66C90.3517 78.66 90.63 78.7 90.9 78.78C91.17 78.86 91.4 78.99 91.59 79.17C91.7167 79.2767 91.825 79.4 91.915 79.54C92.005 79.6767 92.075 79.82 92.125 79.97L91.255 80.195C91.1917 80.025 91.0867 79.8817 90.94 79.765C90.8233 79.665 90.6867 79.5967 90.53 79.56C90.3767 79.5233 90.2217 79.505 90.065 79.505C89.805 79.505 89.57 79.555 89.36 79.655C89.1733 79.745 89.0333 79.8717 88.94 80.035C88.8467 80.195 88.8 80.385 88.8 80.605C88.8 80.795 88.8317 80.9517 88.895 81.075C88.9617 81.195 89.0533 81.3233 89.17 81.46C89.24 81.5333 89.3183 81.6117 89.405 81.695C89.495 81.775 89.5867 81.8583 89.68 81.945L91.8 83.915C91.81 83.8317 91.8167 83.7467 91.82 83.66C91.8233 83.5733 91.825 83.49 91.825 83.41L91.82 82.415H92.635V83.585C92.635 83.8217 92.6267 84.0233 92.61 84.19C92.5967 84.3567 92.5733 84.495 92.54 84.605L93.455 85.45L92.875 86.07L92.115 85.35C91.985 85.4967 91.83 85.625 91.65 85.735C91.47 85.845 91.29 85.9283 91.11 85.985C90.94 86.0483 90.765 86.0917 90.585 86.115C90.405 86.1383 90.2233 86.15 90.04 86.15ZM90.06 85.295C90.2233 85.295 90.3717 85.285 90.505 85.265C90.6383 85.245 90.765 85.2067 90.885 85.15C91.045 85.0733 91.1683 85 91.255 84.93C91.3417 84.86 91.4133 84.795 91.47 84.735L89.275 82.725C89.155 82.765 89.0417 82.8183 88.935 82.885C88.8317 82.9517 88.7417 83.03 88.665 83.12C88.5783 83.2267 88.5133 83.3517 88.47 83.495C88.43 83.6383 88.41 83.79 88.41 83.95C88.4133 84.12 88.4417 84.2767 88.495 84.42C88.5483 84.5633 88.6233 84.6917 88.72 84.805C88.8667 84.975 89.065 85.1 89.315 85.18C89.565 85.2567 89.8133 85.295 90.06 85.295ZM95.4742 86V78.8H97.6942C97.7676 78.8 97.8959 78.8017 98.0792 78.805C98.2626 78.8083 98.4376 78.8217 98.6042 78.845C99.1609 78.9183 99.6259 79.1217 99.9992 79.455C100.376 79.785 100.659 80.205 100.849 80.715C101.039 81.225 101.134 81.7867 101.134 82.4C101.134 83.0133 101.039 83.575 100.849 84.085C100.659 84.595 100.376 85.0167 99.9992 85.35C99.6259 85.68 99.1609 85.8817 98.6042 85.955C98.4376 85.975 98.2609 85.9883 98.0742 85.995C97.8909 85.9983 97.7642 86 97.6942 86H95.4742ZM96.3892 85.15H97.6942C97.8209 85.15 97.9626 85.1467 98.1192 85.14C98.2759 85.13 98.4126 85.115 98.5292 85.095C98.9226 85.0217 99.2409 84.8567 99.4842 84.6C99.7276 84.3433 99.9059 84.0233 100.019 83.64C100.133 83.2567 100.189 82.8433 100.189 82.4C100.189 81.9467 100.131 81.5283 100.014 81.145C99.9009 80.7617 99.7226 80.4433 99.4792 80.19C99.2359 79.9367 98.9192 79.775 98.5292 79.705C98.4126 79.6817 98.2742 79.6667 98.1142 79.66C97.9542 79.6533 97.8142 79.65 97.6942 79.65H96.3892V85.15ZM103.416 86.15C103.013 86.15 102.674 86.0767 102.401 85.93C102.131 85.78 101.926 85.5833 101.786 85.34C101.649 85.0967 101.581 84.83 101.581 84.54C101.581 84.2567 101.634 84.0117 101.741 83.805C101.851 83.595 102.004 83.4217 102.201 83.285C102.398 83.145 102.633 83.035 102.906 82.955C103.163 82.885 103.449 82.825 103.766 82.775C104.086 82.7217 104.409 82.6733 104.736 82.63C105.063 82.5867 105.368 82.545 105.651 82.505L105.331 82.69C105.341 82.21 105.244 81.855 105.041 81.625C104.841 81.395 104.494 81.28 104.001 81.28C103.674 81.28 103.388 81.355 103.141 81.505C102.898 81.6517 102.726 81.8917 102.626 82.225L101.781 81.97C101.911 81.4967 102.163 81.125 102.536 80.855C102.909 80.585 103.401 80.45 104.011 80.45C104.501 80.45 104.921 80.5383 105.271 80.715C105.624 80.8883 105.878 81.1517 106.031 81.505C106.108 81.6717 106.156 81.8533 106.176 82.05C106.196 82.2433 106.206 82.4467 106.206 82.66V86H105.416V84.705L105.601 84.825C105.398 85.2617 105.113 85.5917 104.746 85.815C104.383 86.0383 103.939 86.15 103.416 86.15ZM103.551 85.405C103.871 85.405 104.148 85.3483 104.381 85.235C104.618 85.1183 104.808 84.9667 104.951 84.78C105.094 84.59 105.188 84.3833 105.231 84.16C105.281 83.9933 105.308 83.8083 105.311 83.605C105.318 83.3983 105.321 83.24 105.321 83.13L105.631 83.265C105.341 83.305 105.056 83.3433 104.776 83.38C104.496 83.4167 104.231 83.4567 103.981 83.5C103.731 83.54 103.506 83.5883 103.306 83.645C103.159 83.6917 103.021 83.7517 102.891 83.825C102.764 83.8983 102.661 83.9933 102.581 84.11C102.504 84.2233 102.466 84.365 102.466 84.535C102.466 84.6817 102.503 84.8217 102.576 84.955C102.653 85.0883 102.769 85.1967 102.926 85.28C103.086 85.3633 103.294 85.405 103.551 85.405ZM110.121 86C109.801 86.0633 109.484 86.0883 109.171 86.075C108.861 86.065 108.584 86.0033 108.341 85.89C108.098 85.7733 107.913 85.5933 107.786 85.35C107.679 85.1367 107.621 84.9217 107.611 84.705C107.604 84.485 107.601 84.2367 107.601 83.96V79.1H108.491V83.92C108.491 84.14 108.493 84.3283 108.496 84.485C108.503 84.6417 108.538 84.7767 108.601 84.89C108.721 85.1033 108.911 85.2283 109.171 85.265C109.434 85.3017 109.751 85.2917 110.121 85.235V86ZM106.506 81.335V80.6H110.121V81.335H106.506ZM112.933 86.15C112.403 86.15 111.939 86.0333 111.543 85.8C111.149 85.5633 110.843 85.235 110.623 84.815C110.403 84.3917 110.293 83.8983 110.293 83.335C110.293 82.745 110.401 82.235 110.618 81.805C110.834 81.3717 111.136 81.0383 111.523 80.805C111.913 80.5683 112.369 80.45 112.893 80.45C113.436 80.45 113.898 80.575 114.278 80.825C114.661 81.075 114.948 81.4317 115.138 81.895C115.331 82.3583 115.414 82.91 115.388 83.55H114.488V83.23C114.478 82.5667 114.343 82.0717 114.083 81.745C113.823 81.415 113.436 81.25 112.923 81.25C112.373 81.25 111.954 81.4267 111.668 81.78C111.381 82.1333 111.238 82.64 111.238 83.3C111.238 83.9367 111.381 84.43 111.668 84.78C111.954 85.13 112.363 85.305 112.893 85.305C113.249 85.305 113.559 85.2233 113.823 85.06C114.086 84.8967 114.293 84.6617 114.443 84.355L115.298 84.65C115.088 85.1267 114.771 85.4967 114.348 85.76C113.928 86.02 113.456 86.15 112.933 86.15ZM110.938 83.55V82.835H114.928V83.55H110.938Z" fill="black" fill-opacity="0.6"/>
<path d="M67.128 106V96.056L64.96 97.368V95.776L67.128 94.48H68.576V106H67.128ZM72.988 106V96.056L70.82 97.368V95.776L72.988 94.48H74.436V106H72.988ZM77.48 104.8V103.232H79.048V104.8H77.48ZM77.488 100.128V98.56H79.056V100.128H77.488ZM85.1036 106.24C84.357 106.24 83.6903 106.072 83.1036 105.736C82.5223 105.395 82.061 104.933 81.7196 104.352C81.3836 103.765 81.2156 103.099 81.2156 102.352V98.128C81.2156 97.3813 81.3836 96.7147 81.7196 96.128C82.061 95.5413 82.5223 95.08 83.1036 94.744C83.6903 94.408 84.357 94.24 85.1036 94.24C85.8503 94.24 86.517 94.408 87.1036 94.744C87.6903 95.08 88.1516 95.5413 88.4876 96.128C88.8236 96.7147 88.9916 97.3813 88.9916 98.128V102.352C88.9916 103.099 88.8236 103.765 88.4876 104.352C88.1516 104.933 87.6903 105.395 87.1036 105.736C86.517 106.072 85.8503 106.24 85.1036 106.24ZM85.1036 104.872C85.557 104.872 85.9676 104.763 86.3356 104.544C86.7036 104.325 86.997 104.032 87.2156 103.664C87.4343 103.291 87.5436 102.88 87.5436 102.432V98.04C87.5436 97.5867 87.4343 97.176 87.2156 96.808C86.997 96.44 86.7036 96.1467 86.3356 95.928C85.9676 95.7093 85.557 95.6 85.1036 95.6C84.6556 95.6 84.245 95.7093 83.8716 95.928C83.5036 96.1467 83.2103 96.44 82.9916 96.808C82.773 97.176 82.6636 97.5867 82.6636 98.04V102.432C82.6636 102.88 82.773 103.291 82.9916 103.664C83.2103 104.032 83.5036 104.325 83.8716 104.544C84.245 104.763 84.6556 104.872 85.1036 104.872ZM94.4793 106.24C93.7326 106.24 93.0659 106.072 92.4793 105.736C91.8979 105.395 91.4366 104.933 91.0953 104.352C90.7593 103.765 90.5913 103.099 90.5913 102.352V98.128C90.5913 97.3813 90.7593 96.7147 91.0953 96.128C91.4366 95.5413 91.8979 95.08 92.4793 94.744C93.0659 94.408 93.7326 94.24 94.4793 94.24C95.2259 94.24 95.8926 94.408 96.4793 94.744C97.0659 95.08 97.5273 95.5413 97.8633 96.128C98.1993 96.7147 98.3673 97.3813 98.3673 98.128V102.352C98.3673 103.099 98.1993 103.765 97.8633 104.352C97.5273 104.933 97.0659 105.395 96.4793 105.736C95.8926 106.072 95.2259 106.24 94.4793 106.24ZM94.4793 104.872C94.9326 104.872 95.3433 104.763 95.7113 104.544C96.0793 104.325 96.3726 104.032 96.5913 103.664C96.8099 103.291 96.9193 102.88 96.9193 102.432V98.04C96.9193 97.5867 96.8099 97.176 96.5913 96.808C96.3726 96.44 96.0793 96.1467 95.7113 95.928C95.3433 95.7093 94.9326 95.6 94.4793 95.6C94.0313 95.6 93.6206 95.7093 93.2473 95.928C92.8793 96.1467 92.5859 96.44 92.3673 96.808C92.1486 97.176 92.0393 97.5867 92.0393 98.04V102.432C92.0393 102.88 92.1486 103.291 92.3673 103.664C92.5859 104.032 92.8793 104.325 93.2473 104.544C93.6206 104.763 94.0313 104.872 94.4793 104.872ZM103.935 106.24C103.124 106.24 102.442 106.04 101.887 105.64C101.332 105.235 100.911 104.688 100.623 104C100.34 103.307 100.199 102.531 100.199 101.672C100.199 100.803 100.34 100.024 100.623 99.336C100.911 98.648 101.332 98.1067 101.887 97.712C102.447 97.3173 103.132 97.12 103.943 97.12C104.743 97.12 105.431 97.32 106.007 97.72C106.588 98.1147 107.034 98.656 107.343 99.344C107.652 100.032 107.807 100.808 107.807 101.672C107.807 102.536 107.652 103.312 107.343 104C107.034 104.688 106.588 105.235 106.007 105.64C105.431 106.04 104.74 106.24 103.935 106.24ZM99.9589 109.84V97.36H101.231V103.72H101.391V109.84H99.9589ZM103.759 104.936C104.33 104.936 104.802 104.792 105.175 104.504C105.548 104.216 105.828 103.827 106.015 103.336C106.202 102.84 106.295 102.285 106.295 101.672C106.295 101.064 106.202 100.515 106.015 100.024C105.834 99.5333 105.551 99.144 105.167 98.856C104.788 98.568 104.306 98.424 103.719 98.424C103.159 98.424 102.695 98.5627 102.327 98.84C101.959 99.112 101.684 99.4933 101.503 99.984C101.322 100.469 101.231 101.032 101.231 101.672C101.231 102.301 101.319 102.864 101.495 103.36C101.676 103.851 101.954 104.237 102.327 104.52C102.7 104.797 103.178 104.936 103.759 104.936ZM119.249 106L119.257 100.472C119.257 99.8267 119.083 99.3227 118.737 98.96C118.395 98.592 117.95 98.408 117.401 98.408C117.081 98.408 116.777 98.4827 116.489 98.632C116.201 98.776 115.966 99.0053 115.785 99.32C115.603 99.6293 115.513 100.027 115.513 100.512L114.761 100.208C114.75 99.5947 114.875 99.0587 115.137 98.6C115.403 98.136 115.766 97.776 116.225 97.52C116.683 97.264 117.201 97.136 117.777 97.136C118.678 97.136 119.387 97.4107 119.905 97.96C120.422 98.504 120.681 99.2373 120.681 100.16L120.673 106H119.249ZM108.913 106V97.36H110.185V99.672H110.345V106H108.913ZM114.089 106L114.097 100.528C114.097 99.8667 113.926 99.3493 113.585 98.976C113.243 98.5973 112.79 98.408 112.225 98.408C111.665 98.408 111.211 98.6 110.865 98.984C110.518 99.368 110.345 99.8773 110.345 100.512L109.593 100.064C109.593 99.504 109.726 99.0027 109.993 98.56C110.259 98.1173 110.622 97.7707 111.081 97.52C111.539 97.264 112.059 97.136 112.641 97.136C113.222 97.136 113.729 97.2587 114.161 97.504C114.593 97.7493 114.926 98.1013 115.161 98.56C115.395 99.0133 115.513 99.5547 115.513 100.184L115.505 106H114.089ZM124.368 105.992L124.376 104.712L129.488 100.112C129.914 99.728 130.2 99.3653 130.344 99.024C130.493 98.6773 130.568 98.3227 130.568 97.96C130.568 97.5173 130.466 97.1173 130.264 96.76C130.061 96.4027 129.784 96.12 129.432 95.912C129.085 95.704 128.69 95.6 128.248 95.6C127.789 95.6 127.381 95.7093 127.024 95.928C126.666 96.1413 126.384 96.4267 126.176 96.784C125.973 97.1413 125.874 97.5307 125.88 97.952H124.424C124.424 97.2267 124.592 96.5867 124.928 96.032C125.264 95.472 125.72 95.0347 126.296 94.72C126.877 94.4 127.536 94.24 128.272 94.24C128.986 94.24 129.626 94.4053 130.192 94.736C130.757 95.0613 131.202 95.5067 131.528 96.072C131.858 96.632 132.024 97.2667 132.024 97.976C132.024 98.4773 131.96 98.912 131.832 99.28C131.709 99.648 131.517 99.9893 131.256 100.304C130.994 100.613 130.666 100.944 130.272 101.296L126.024 105.112L125.84 104.632H132.024V105.992H124.368ZM137.225 106.24C136.495 106.24 135.831 106.064 135.233 105.712C134.641 105.36 134.169 104.88 133.817 104.272C133.471 103.659 133.297 102.968 133.297 102.2V98.368C133.297 97.5627 133.471 96.8507 133.817 96.232C134.169 95.608 134.649 95.1227 135.257 94.776C135.871 94.424 136.569 94.248 137.353 94.248C137.988 94.248 138.577 94.3787 139.121 94.64C139.671 94.896 140.132 95.2667 140.505 95.752L139.441 96.696C139.212 96.36 138.913 96.0933 138.545 95.896C138.177 95.6987 137.78 95.6 137.353 95.6C136.847 95.6 136.396 95.7227 136.001 95.968C135.612 96.208 135.305 96.528 135.081 96.928C134.857 97.3227 134.745 97.7493 134.745 98.208V100.52L134.433 100.168C134.769 99.688 135.196 99.304 135.713 99.016C136.231 98.728 136.791 98.584 137.393 98.584C138.108 98.584 138.748 98.752 139.313 99.088C139.884 99.424 140.332 99.88 140.657 100.456C140.988 101.027 141.153 101.669 141.153 102.384C141.153 103.099 140.975 103.747 140.617 104.328C140.26 104.909 139.783 105.373 139.185 105.72C138.593 106.067 137.94 106.24 137.225 106.24ZM137.225 104.864C137.684 104.864 138.103 104.755 138.481 104.536C138.86 104.312 139.159 104.013 139.377 103.64C139.601 103.261 139.713 102.843 139.713 102.384C139.713 101.925 139.601 101.507 139.377 101.128C139.159 100.749 138.86 100.451 138.481 100.232C138.108 100.008 137.692 99.896 137.233 99.896C136.775 99.896 136.356 100.008 135.977 100.232C135.604 100.451 135.305 100.749 135.081 101.128C134.857 101.507 134.745 101.925 134.745 102.384C134.745 102.837 134.855 103.253 135.073 103.632C135.297 104.005 135.596 104.304 135.969 104.528C136.348 104.752 136.767 104.864 137.225 104.864ZM145.507 94.48H146.955L143.883 106H142.435L145.507 94.48ZM152.28 106.24C151.534 106.24 150.867 106.072 150.28 105.736C149.699 105.395 149.238 104.933 148.896 104.352C148.56 103.765 148.392 103.099 148.392 102.352V98.128C148.392 97.3813 148.56 96.7147 148.896 96.128C149.238 95.5413 149.699 95.08 150.28 94.744C150.867 94.408 151.534 94.24 152.28 94.24C153.027 94.24 153.694 94.408 154.28 94.744C154.867 95.08 155.328 95.5413 155.664 96.128C156 96.7147 156.168 97.3813 156.168 98.128V102.352C156.168 103.099 156 103.765 155.664 104.352C155.328 104.933 154.867 105.395 154.28 105.736C153.694 106.072 153.027 106.24 152.28 106.24ZM152.28 104.872C152.734 104.872 153.144 104.763 153.512 104.544C153.88 104.325 154.174 104.032 154.392 103.664C154.611 103.291 154.72 102.88 154.72 102.432V98.04C154.72 97.5867 154.611 97.176 154.392 96.808C154.174 96.44 153.88 96.1467 153.512 95.928C153.144 95.7093 152.734 95.6 152.28 95.6C151.832 95.6 151.422 95.7093 151.048 95.928C150.68 96.1467 150.387 96.44 150.168 96.808C149.95 97.176 149.84 97.5867 149.84 98.04V102.432C149.84 102.88 149.95 103.291 150.168 103.664C150.387 104.032 150.68 104.325 151.048 104.544C151.422 104.763 151.832 104.872 152.28 104.872ZM160.928 106.224C160.357 106.224 159.827 106.12 159.336 105.912C158.845 105.699 158.421 105.4 158.064 105.016C157.712 104.627 157.453 104.165 157.288 103.632L158.656 103.24C158.832 103.773 159.125 104.179 159.536 104.456C159.947 104.733 160.408 104.869 160.92 104.864C161.389 104.853 161.795 104.747 162.136 104.544C162.483 104.336 162.749 104.053 162.936 103.696C163.128 103.339 163.224 102.925 163.224 102.456C163.224 101.741 163.011 101.163 162.584 100.72C162.157 100.272 161.597 100.048 160.904 100.048C160.712 100.048 160.509 100.075 160.296 100.128C160.088 100.181 159.893 100.256 159.712 100.352L159.024 99.224L163.296 95.36L163.48 95.84H157.744V94.48H164.536V95.848L160.896 99.336L160.88 98.832C161.643 98.7787 162.309 98.904 162.88 99.208C163.451 99.512 163.893 99.9467 164.208 100.512C164.528 101.077 164.688 101.725 164.688 102.456C164.688 103.192 164.523 103.843 164.192 104.408C163.861 104.973 163.413 105.419 162.848 105.744C162.283 106.064 161.643 106.224 160.928 106.224ZM169.04 94.48H170.488L167.416 106H165.968L169.04 94.48ZM171.606 105.992L171.614 104.712L176.726 100.112C177.152 99.728 177.438 99.3653 177.582 99.024C177.731 98.6773 177.806 98.3227 177.806 97.96C177.806 97.5173 177.704 97.1173 177.502 96.76C177.299 96.4027 177.022 96.12 176.67 95.912C176.323 95.704 175.928 95.6 175.486 95.6C175.027 95.6 174.619 95.7093 174.262 95.928C173.904 96.1413 173.622 96.4267 173.414 96.784C173.211 97.1413 173.112 97.5307 173.118 97.952H171.662C171.662 97.2267 171.83 96.5867 172.166 96.032C172.502 95.472 172.958 95.0347 173.534 94.72C174.115 94.4 174.774 94.24 175.51 94.24C176.224 94.24 176.864 94.4053 177.43 94.736C177.995 95.0613 178.44 95.5067 178.766 96.072C179.096 96.632 179.262 97.2667 179.262 97.976C179.262 98.4773 179.198 98.912 179.07 99.28C178.947 99.648 178.755 99.9893 178.494 100.304C178.232 100.613 177.904 100.944 177.51 101.296L173.262 105.112L173.078 104.632H179.262V105.992H171.606ZM184.424 106.24C183.677 106.24 183.01 106.072 182.424 105.736C181.842 105.395 181.381 104.933 181.04 104.352C180.704 103.765 180.536 103.099 180.536 102.352V98.128C180.536 97.3813 180.704 96.7147 181.04 96.128C181.381 95.5413 181.842 95.08 182.424 94.744C183.01 94.408 183.677 94.24 184.424 94.24C185.17 94.24 185.837 94.408 186.424 94.744C187.01 95.08 187.472 95.5413 187.808 96.128C188.144 96.7147 188.312 97.3813 188.312 98.128V102.352C188.312 103.099 188.144 103.765 187.808 104.352C187.472 104.933 187.01 105.395 186.424 105.736C185.837 106.072 185.17 106.24 184.424 106.24ZM184.424 104.872C184.877 104.872 185.288 104.763 185.656 104.544C186.024 104.325 186.317 104.032 186.536 103.664C186.754 103.291 186.864 102.88 186.864 102.432V98.04C186.864 97.5867 186.754 97.176 186.536 96.808C186.317 96.44 186.024 96.1467 185.656 95.928C185.288 95.7093 184.877 95.6 184.424 95.6C183.976 95.6 183.565 95.7093 183.192 95.928C182.824 96.1467 182.53 96.44 182.312 96.808C182.093 97.176 181.984 97.5867 181.984 98.04V102.432C181.984 102.88 182.093 103.291 182.312 103.664C182.53 104.032 182.824 104.325 183.192 104.544C183.565 104.763 183.976 104.872 184.424 104.872ZM189.591 105.992L189.599 104.712L194.711 100.112C195.138 99.728 195.423 99.3653 195.567 99.024C195.717 98.6773 195.791 98.3227 195.791 97.96C195.791 97.5173 195.69 97.1173 195.487 96.76C195.285 96.4027 195.007 96.12 194.655 95.912C194.309 95.704 193.914 95.6 193.471 95.6C193.013 95.6 192.605 95.7093 192.247 95.928C191.89 96.1413 191.607 96.4267 191.399 96.784C191.197 97.1413 191.098 97.5307 191.103 97.952H189.647C189.647 97.2267 189.815 96.5867 190.151 96.032C190.487 95.472 190.943 95.0347 191.519 94.72C192.101 94.4 192.759 94.24 193.495 94.24C194.21 94.24 194.85 94.4053 195.415 94.736C195.981 95.0613 196.426 95.5067 196.751 96.072C197.082 96.632 197.247 97.2667 197.247 97.976C197.247 98.4773 197.183 98.912 197.055 99.28C196.933 99.648 196.741 99.9893 196.479 100.304C196.218 100.613 195.89 100.944 195.495 101.296L191.247 105.112L191.063 104.632H197.247V105.992H189.591ZM202.449 106.24C201.719 106.24 201.055 106.064 200.457 105.712C199.865 105.36 199.393 104.88 199.041 104.272C198.695 103.659 198.521 102.968 198.521 102.2V98.368C198.521 97.5627 198.695 96.8507 199.041 96.232C199.393 95.608 199.873 95.1227 200.481 94.776C201.095 94.424 201.793 94.248 202.577 94.248C203.212 94.248 203.801 94.3787 204.345 94.64C204.895 94.896 205.356 95.2667 205.729 95.752L204.665 96.696C204.436 96.36 204.137 96.0933 203.769 95.896C203.401 95.6987 203.004 95.6 202.577 95.6C202.071 95.6 201.62 95.7227 201.225 95.968C200.836 96.208 200.529 96.528 200.305 96.928C200.081 97.3227 199.969 97.7493 199.969 98.208V100.52L199.657 100.168C199.993 99.688 200.42 99.304 200.937 99.016C201.455 98.728 202.015 98.584 202.617 98.584C203.332 98.584 203.972 98.752 204.537 99.088C205.108 99.424 205.556 99.88 205.881 100.456C206.212 101.027 206.377 101.669 206.377 102.384C206.377 103.099 206.199 103.747 205.841 104.328C205.484 104.909 205.007 105.373 204.409 105.72C203.817 106.067 203.164 106.24 202.449 106.24ZM202.449 104.864C202.908 104.864 203.327 104.755 203.705 104.536C204.084 104.312 204.383 104.013 204.601 103.64C204.825 103.261 204.937 102.843 204.937 102.384C204.937 101.925 204.825 101.507 204.601 101.128C204.383 100.749 204.084 100.451 203.705 100.232C203.332 100.008 202.916 99.896 202.457 99.896C201.999 99.896 201.58 100.008 201.201 100.232C200.828 100.451 200.529 100.749 200.305 101.128C200.081 101.507 199.969 101.925 199.969 102.384C199.969 102.837 200.079 103.253 200.297 103.632C200.521 104.005 200.82 104.304 201.193 104.528C201.572 104.752 201.991 104.864 202.449 104.864Z" fill="black"/>
<g clip-path="url(#clip0_168_618)">
<g filter="url(#filter0_d_168_618)">
<path d="M238.574 159.2L234.636 155.262L233.433 156.464C232.203 157.696 231.587 158.311 230.925 158.166C230.263 158.021 229.962 157.203 229.36 155.57L227.353 150.12C226.152 146.861 225.55 145.232 226.39 144.392C227.23 143.552 228.86 144.152 232.12 145.354L237.57 147.36C239.203 147.962 240.02 148.263 240.166 148.925C240.312 149.587 239.696 150.202 238.464 151.433L237.262 152.636L241.2 156.574C241.608 156.982 241.812 157.186 241.906 157.414C242.031 157.717 242.031 158.057 241.906 158.361C241.812 158.588 241.608 158.792 241.2 159.2C240.792 159.608 240.588 159.812 240.36 159.906C240.057 160.031 239.716 160.031 239.413 159.906C239.186 159.812 238.983 159.608 238.574 159.2Z" fill="white"/>
</g>
</g>
<defs>
<filter id="filter0_d_168_618" x="223.899" y="143.9" width="20.2008" height="20.1995" filterUnits="userSpaceOnUse" color-interpolation-filters="sRGB">
<feFlood flood-opacity="0" result="BackgroundImageFix"/>
<feColorMatrix in="SourceAlpha" type="matrix" values="0 0 0 0 0 0 0 0 0 0 0 0 0 0 0 0 0 0 127 0" result="hardAlpha"/>
<feOffset dy="2"/>
<feGaussianBlur stdDeviation="1.05"/>
<feComposite in2="hardAlpha" operator="out"/>
<feColorMatrix type="matrix" values="0 0 0 0 0 0 0 0 0 0 0 0 0 0 0 0 0 0 0.25 0"/>
<feBlend mode="normal" in2="BackgroundImageFix" result="effect1_dropShadow_168_618"/>
<feBlend mode="normal" in="SourceGraphic" in2="effect1_dropShadow_168_618" result="shape"/>
</filter>
<linearGradient id="paint0_linear_168_618" x1="189" y1="0" x2="189" y2="169" gradientUnits="userSpaceOnUse">
<stop stop-color="white"/>
<stop offset="1" stop-color="#FDFEFF" stop-opacity="0"/>
</linearGradient>
<linearGradient id="paint1_linear_168_618" x1="189" y1="0" x2="189" y2="169" gradientUnits="userSpaceOnUse">
<stop stop-color="#0066FF"/>
<stop offset="1" stop-color="#0066FF" stop-opacity="0"/>
</linearGradient>
<clipPath id="clip0_168_618">
<rect width="24" height="24" fill="white" transform="translate(222 140)"/>
</clipPath>
</defs>
</svg>
