<svg width="38" height="38" viewBox="0 0 38 38" fill="none" xmlns="http://www.w3.org/2000/svg">
<rect width="38" height="38" fill="black"/>
<g clip-path="url(#clip0_711_42)">
<path d="M20.5874 32.4106C19.5479 33.5066 17.2792 33.006 16.8189 31.4743C15.87 28.3163 18.642 28.3084 20.3871 26.9691C24.5631 23.7644 23.4639 20.0088 17.8817 20.8017C15.0252 21.2073 12.9415 24.4748 10.3564 23.6039C7.87305 22.7674 7.20768 19.4061 9.0564 17.5434C10.5835 16.0043 12.805 16.6589 14.1726 13.6453C15.6797 10.3241 12.7244 7.35278 16.8926 5.354C19.9953 3.86636 23.6182 7.33883 21.9342 10.646C21.03 12.4224 17.8141 12.4533 15.9675 14.9903C12.6563 19.54 18.6992 20.4629 21.89 19.0755C23.0625 18.5657 24.3481 17.1038 25.5835 16.7715C28.4877 15.9899 30.9112 18.9076 29.6641 21.7582C28.7183 23.9196 24.7239 23.9113 22.8765 26.225C21.4422 28.0214 21.5163 31.4307 20.5874 32.4106Z" fill="white"/>
</g>
<defs>
<clipPath id="clip0_711_42">
<rect width="22" height="28" fill="white" transform="translate(8 5)"/>
</clipPath>
</defs>
</svg>
